# xmcd
#
# Track frame offsets:
# 150
# 17204
# 35771
# 54220
# 67670
# 82701
# 99133
# 112914
# 126196
# 143629
# 161134
# 174020
# 189823
# 205717
# 222676
# 236431
# 249933
# 264349
# 278508
# 290200
# 306355
#
# Disc length: 4266 seconds
#
#
# Revision: 0
# Processed by: cddbd v1.4PL0 Copyright (c) Steve Scherf et al.
# Submitted via: FreeRIP 2.20 
#
DISCID=1310a815
DTITLE=Varios  - 100 Exitos Gruperos
DYEAR=1900
DGENRE=Folklore
TTITLE0=Intro
TTITLE1=Los temerarios - Mi vida eres Tu
TTITLE2=Marco Antonio Solies - Que pena me das
TTITLE3=Bronco - Que no quede huella
TTITLE4=Industria del Amor - Si te quedaras
TTITLE5=Abracadabra - En realidad
TTITLE6=Los Falcon's - Toma mi corazon
TTITLE7=Los caminantes - Supe Perder
TTITLE8=Los Yonic's - Rosas Blancas
TTITLE9=Los bukis - Como fui a enomarme de ti
TTITLE10=Limite - Sentimientos
TTITLE11=Ana Barbara - Como me haces Falta
TTITLE12=Marisela - Sin el 
TTITLE13=Los angeles Azules - Como te voy a olvidar
TTITLE14=Selena - Como la Flor
TTITLE15=Los dukers - Recuardame Bonito
TTITLE16=Viento y Sol - Par de Anillos
TTITLE17=Samuray - Amor Imposible
TTITLE18=Libra - Sea por Dios
TTITLE19=El Mexicano - Ramito de Violetas
TTITLE20=Liberacion - Por esa Yegua 
EXTD=
EXTT0=
EXTT1=
EXTT2=
EXTT3=
EXTT4=
EXTT5=
EXTT6=
EXTT7=
EXTT8=
EXTT9=
EXTT10=
EXTT11=
EXTT12=
EXTT13=
EXTT14=
EXTT15=
EXTT16=
EXTT17=
EXTT18=
EXTT19=
EXTT20=
PLAYORDER=
